solid Exported from Blender-2.78 (sub 0)
facet normal 0.000000 -1.000000 0.000000
outer loop
vertex -2.557036 -2.557036 2.557035
vertex -2.557036 -2.557036 -2.557036
vertex 2.557036 -2.557036 -2.557035
endloop
endfacet
facet normal 0.000000 -1.000000 0.000000
outer loop
vertex 2.557036 -2.557036 -2.557035
vertex 2.557035 -2.557036 2.557037
vertex -2.557036 -2.557036 2.557035
endloop
endfacet
facet normal 0.000000 1.000000 0.000000
outer loop
vertex -2.557037 2.557036 2.557034
vertex 2.557035 2.557036 2.557036
vertex 2.557037 2.557036 -2.557035
endloop
endfacet
facet normal 0.000000 1.000000 -0.000000
outer loop
vertex 2.557037 2.557036 -2.557035
vertex -2.557034 2.557036 -2.557037
vertex -2.557037 2.557036 2.557034
endloop
endfacet
facet normal -1.000000 -0.000000 -0.000001
outer loop
vertex -2.557036 -2.557036 2.557035
vertex -2.557037 2.557036 2.557034
vertex -2.557034 2.557036 -2.557037
endloop
endfacet
facet normal -1.000000 0.000000 0.000000
outer loop
vertex -2.557034 2.557036 -2.557037
vertex -2.557036 -2.557036 -2.557036
vertex -2.557036 -2.557036 2.557035
endloop
endfacet
facet normal 0.000001 -0.000000 -1.000000
outer loop
vertex -2.557036 -2.557036 -2.557036
vertex -2.557034 2.557036 -2.557037
vertex 2.557037 2.557036 -2.557035
endloop
endfacet
facet normal 0.000000 0.000000 -1.000000
outer loop
vertex 2.557037 2.557036 -2.557035
vertex 2.557036 -2.557036 -2.557035
vertex -2.557036 -2.557036 -2.557036
endloop
endfacet
facet normal 1.000000 -0.000000 0.000000
outer loop
vertex 2.557036 -2.557036 -2.557035
vertex 2.557037 2.557036 -2.557035
vertex 2.557035 2.557036 2.557036
endloop
endfacet
facet normal 1.000000 -0.000000 0.000000
outer loop
vertex 2.557035 2.557036 2.557036
vertex 2.557035 -2.557036 2.557037
vertex 2.557036 -2.557036 -2.557035
endloop
endfacet
facet normal -0.000000 0.000000 1.000000
outer loop
vertex -2.557037 2.557036 2.557034
vertex -2.557036 -2.557036 2.557035
vertex 2.557035 -2.557036 2.557037
endloop
endfacet
facet normal -0.000000 0.000000 1.000000
outer loop
vertex 2.557035 -2.557036 2.557037
vertex 2.557035 2.557036 2.557036
vertex -2.557037 2.557036 2.557034
endloop
endfacet
endsolid Exported from Blender-2.78 (sub 0)
